<?xml version="1.0" encoding="UTF-8"?>
<svg id="Camada_2" data-name="Camada 2" xmlns="http://www.w3.org/2000/svg" viewBox="0 0 212.5 63.54">
  <defs>
    <style>
      .cls-1 {
        fill: #fff;
      }

      .cls-2 {
        fill: #f93232;
      }

      .cls-3 {
        fill: #67d264;
      }
    </style>
  </defs>
  <g id="OBJECTS">
    <g>
      <g>
        <path class="cls-1" d="m18.38,15.76c-1.79,1.73-4.53,2.6-8.21,2.6h-6.06v13.16H0V0h10.18c3.56,0,6.26.86,8.12,2.58,1.85,1.72,2.78,3.93,2.78,6.65s-.9,4.8-2.69,6.53Zm-3.14-2.28c1.09-.99,1.63-2.41,1.63-4.25,0-3.89-2.23-5.83-6.69-5.83h-6.06v11.58h6.06c2.29,0,3.98-.5,5.06-1.49Z"/>
        <path class="cls-1" d="m34.82,0v31.52h-4.12V0h4.12Z"/>
        <path class="cls-1" d="m49.84,27.95h15.38v3.57h-20.26v-3.26L60.24,3.57h-15.1V0h19.99v3.26l-15.29,24.69Z"/>
        <path class="cls-1" d="m78.82,27.95h15.38v3.57h-20.26v-3.26l15.29-24.69h-15.1V0h19.99v3.26l-15.29,24.69Z"/>
        <path class="cls-1" d="m122.96,24.51h-13.75l-2.53,7.01h-4.34L113.73.18h4.75l11.35,31.34h-4.34l-2.53-7.01Zm-1.18-3.35l-5.7-15.92-5.7,15.92h11.4Z"/>
        <path class="cls-1" d="m155.93,31.52l-7.51-12.89h-4.97v12.89h-4.12V0h10.18c2.38,0,4.39.41,6.04,1.22,1.64.81,2.87,1.91,3.69,3.3.81,1.39,1.22,2.97,1.22,4.75,0,2.17-.63,4.09-1.88,5.74-1.25,1.66-3.13,2.76-5.63,3.3l7.91,13.21h-4.93Zm-12.48-16.19h6.06c2.23,0,3.9-.55,5.02-1.65,1.11-1.1,1.67-2.57,1.67-4.41s-.55-3.32-1.65-4.34c-1.1-1.02-2.78-1.54-5.04-1.54h-6.06v11.94Z"/>
        <path class="cls-1" d="m175.46,0v31.52h-4.12V0h4.12Z"/>
        <path class="cls-1" d="m205.63,24.51h-13.75l-2.53,7.01h-4.34L196.4.18h4.75l11.35,31.34h-4.34l-2.53-7.01Zm-1.18-3.35l-5.7-15.92-5.7,15.92h11.4Z"/>
      </g>
      <g>
        <g>
          <path class="cls-1" d="m58.19,56.69v2.37c0,2.85-1.43,4.48-4.18,4.48s-4.18-1.63-4.18-4.48v-9.27c0-2.85,1.43-4.48,4.18-4.48s4.18,1.63,4.18,4.48v1.73h-2.65v-1.91c0-1.27-.56-1.76-1.45-1.76s-1.45.48-1.45,1.76v9.63c0,1.27.56,1.73,1.45,1.73s1.45-.46,1.45-1.73v-2.55h2.65Z"/>
          <path class="cls-1" d="m66.04,49.79c0-2.85,1.5-4.48,4.25-4.48s4.25,1.63,4.25,4.48v9.27c0,2.85-1.5,4.48-4.25,4.48s-4.25-1.63-4.25-4.48v-9.27Zm2.8,9.45c0,1.27.56,1.76,1.45,1.76s1.45-.48,1.45-1.76v-9.63c0-1.27-.56-1.76-1.45-1.76s-1.45.48-1.45,1.76v9.63Z"/>
          <path class="cls-1" d="m88.66,58.17l1.91-12.66h3.9v17.83h-2.65v-12.78l-1.94,12.78h-2.65l-2.09-12.61v12.61h-2.44v-17.83h3.9l2.06,12.66Z"/>
          <path class="cls-1" d="m111.94,63.34h-2.83l-.48-3.23h-3.44l-.48,3.23h-2.57l2.85-17.83h4.1l2.85,17.83Zm-6.39-5.65h2.7l-1.35-9.02-1.35,9.02Z"/>
          <path class="cls-1" d="m122.11,50.43v12.91h-2.52v-17.83h3.51l2.88,10.67v-10.67h2.5v17.83h-2.88l-3.49-12.91Z"/>
          <path class="cls-1" d="m136.86,45.51h4.43c2.8,0,4.18,1.55,4.18,4.41v9.02c0,2.85-1.38,4.41-4.18,4.41h-4.43v-17.83Zm2.8,2.55v12.73h1.58c.89,0,1.43-.46,1.43-1.73v-9.27c0-1.27-.53-1.73-1.43-1.73h-1.58Z"/>
          <path class="cls-1" d="m162.66,63.34h-2.83l-.48-3.23h-3.44l-.48,3.23h-2.57l2.85-17.83h4.1l2.85,17.83Zm-6.39-5.65h2.7l-1.35-9.02-1.35,9.02Z"/>
        </g>
        <g>
          <polygon class="cls-2" points="43 44.72 0 44.72 7 54.22 0 63.22 43 63.22 43 44.72"/>
          <polygon class="cls-3" points="169.5 63.22 212.5 63.22 205.5 53.72 212.5 44.72 169.5 44.72 169.5 63.22"/>
        </g>
      </g>
    </g>
  </g>
</svg>