<?xml version="1.0" encoding="UTF-8"?>
<svg id="Camada_2" data-name="Camada 2" xmlns="http://www.w3.org/2000/svg" viewBox="0 0 490 490">
  <defs>
    <style>
      .cls-1 {
        fill: #fff;
      }

      .cls-2 {
        fill: #ff006e;
      }

      .cls-3 {
        fill: #540c6f;
      }

      .cls-4 {
        fill: #ed1b24;
      }

      .cls-5 {
        fill: #22b573;
      }

      .cls-6 {
        fill: #8437e9;
      }

      .cls-7 {
        fill: #ffbe0c;
      }
    </style>
  </defs>
  <g id="Camada_2-2" data-name="Camada 2">
    <g>
      <rect class="cls-3" x="160" y="160" width="330" height="330" rx="20" ry="20"/>
      <rect class="cls-3" x="160" y="95" width="130" height="130" rx="20" ry="20"/>
      <rect class="cls-3" x="95" y="160" width="130" height="130" rx="20" ry="20"/>
      <rect class="cls-4" x="60" y="60" width="80" height="80" rx="20" ry="20"/>
      <rect class="cls-2" x="161" y="25" width="50" height="50" rx="20" ry="20"/>
      <rect class="cls-6" x="0" y="60" width="40" height="40" rx="20" ry="20"/>
      <rect class="cls-5" x="60" y="0" width="40" height="40" rx="20" ry="20"/>
      <rect class="cls-7" x="25" y="160" width="50" height="50" rx="20" ry="20"/>
      <path class="cls-1" d="m297.48,284.93h-37.47c-5.52,0-10-4.48-10-10v-24.93c0-5.52,4.48-10,10-10h130c5.52,0,10,4.48,10,10v24.93c0,5.52-4.48,10-10,10h-37.48c-.29,0-.52.23-.52.52v114.55c0,5.52-4.48,10-10,10h-34c-5.52,0-10-4.48-10-10v-114.55c0-.29-.23-.52-.52-.52Z"/>
    </g>
  </g>
</svg>